<?xml version="1.0" standalone="no"?>
<!DOCTYPE svg PUBLIC "-//W3C//DTD SVG 20010904//EN"
 "http://www.w3.org/TR/2001/REC-SVG-20010904/DTD/svg10.dtd">
<svg version="1.0" xmlns="http://www.w3.org/2000/svg"
 width="700.000000pt" height="700.000000pt" viewBox="0 0 700.000000 700.000000"
 preserveAspectRatio="xMidYMid meet">
<metadata>
Created by potrace 1.14, written by Peter Selinger 2001-2017
</metadata>
<g transform="translate(0.000000,700.000000) scale(0.100000,-0.100000)"
fill="#000000" stroke="none">
<path d="M0 3500 l0 -3500 3500 0 3500 0 0 3500 0 3500 -3500 0 -3500 0 0
-3500z m1779 178 l526 -1557 16 37 c8 20 253 722 544 1560 l529 1522 117 0
c65 0 120 -4 124 -10 3 -5 246 -705 540 -1556 294 -851 537 -1549 539 -1551 2
-2 13 22 24 54 54 156 960 2815 999 2931 l45 132 119 0 c88 0 119 -3 119 -12
0 -7 -262 -788 -582 -1735 l-583 -1723 -135 0 -135 0 -535 1549 c-294 852
-537 1547 -540 1545 -3 -3 -246 -699 -541 -1547 l-535 -1542 -137 -3 c-75 -1
-137 -1 -137 2 0 2 -263 779 -585 1725 -322 947 -585 1726 -585 1732 0 6 49 9
131 7 l131 -3 527 -1557z"/>
</g>
</svg>
