<svg xmlns="http://www.w3.org/2000/svg" width="123" height="31.747" viewBox="0 0 123 31.747">
  <g id="logo-well" transform="translate(-1132 -1228)">
    <g id="Grupo_149" data-name="Grupo 149" transform="translate(1132 1228)">
      <path id="Trazado_722" data-name="Trazado 722" d="M1491.609,481.277l-10.747,31.746h-2.449l-9.842-28.48-9.886,28.48h-2.449l-10.793-31.746h2.449l9.659,28.571,9.932-28.571h2.222l9.886,28.616,9.75-28.616Z" transform="translate(-1445.442 -481.277)" fill="#fff"/>
      <rect id="Rectángulo_67" data-name="Rectángulo 67" width="11.113" height="2.086" transform="translate(57.638 0)" fill="#fff"/>
      <path id="Trazado_723" data-name="Trazado 723" d="M1664.943,481.277h2.313v29.659h11.709v2.086h-14.022Z" transform="translate(-1577.601 -481.277)" fill="#fff"/>
      <path id="Trazado_724" data-name="Trazado 724" d="M1719.319,481.277h2.313v29.659h11.709v2.086h-14.022Z" transform="translate(-1610.341 -481.277)" fill="#fff"/>
      <g id="Grupo_148" data-name="Grupo 148" transform="translate(51.695 7.881)">
        <path id="Trazado_725" data-name="Trazado 725" d="M1597.562,509.544l-18.985,7.363c2.245,5.16,7.47,7.22,12.755,5.17a9.544,9.544,0,0,0,5.864-5.825l1.768.92a11.33,11.33,0,0,1-6.936,6.825c-6.681,2.591-13.177-.239-15.719-6.793s.178-12.959,6.224-15.3,12.3.483,14.841,7.036C1597.44,509.1,1597.48,509.332,1597.562,509.544Zm-19.582,5.7,16.912-6.56c-2.149-4.663-6.944-6.743-11.638-4.922S1576.448,510.29,1577.98,515.241Z" transform="translate(-1575.359 -501.084)" fill="#fff"/>
      </g>
    </g>
  </g>
</svg>
