<svg xmlns="http://www.w3.org/2000/svg" width="295" height="148.663" viewBox="0 0 295 148.663">
  <g id="well-logo-login" transform="translate(-666.497 -448.289)">
    <g id="Grupo_507" data-name="Grupo 507" transform="translate(666.497 448.289)">
      <path id="Trazado_1622" data-name="Trazado 1622" d="M777.221,448.289l-25.776,76.137h-5.874l-23.6-68.306-23.71,68.306h-5.874L666.5,448.289h5.874l23.167,68.524,23.82-68.524h5.33l23.71,68.632,23.385-68.632Z" transform="translate(-666.497 -448.289)" fill="#fff"/>
      <rect id="Rect치ngulo_159" data-name="Rect치ngulo 159" width="26.652" height="5.003" transform="translate(138.238 0)" fill="#fff"/>
      <path id="Trazado_1623" data-name="Trazado 1623" d="M1083.326,448.289h5.547v71.134h28.083v5h-33.63Z" transform="translate(-873.849 -448.289)" fill="#fff"/>
      <path id="Trazado_1624" data-name="Trazado 1624" d="M1186.585,448.289h5.547v71.134h28.083v5h-33.63Z" transform="translate(-925.215 -448.289)" fill="#fff"/>
      <g id="Grupo_506" data-name="Grupo 506" transform="translate(123.984 18.902)">
        <path id="Trazado_1625" data-name="Trazado 1625" d="M966.458,506.191l-45.533,17.66c5.385,12.377,17.916,17.316,30.593,12.4,6.692-2.6,11.935-7.429,14.063-13.971l4.24,2.205c-2.461,7.489-8.623,13.261-16.633,16.369-16.023,6.215-31.605-.574-37.7-16.293s.427-31.081,14.928-36.706,29.5,1.159,35.595,16.876C966.166,505.137,966.261,505.683,966.458,506.191Zm-46.965,13.665,40.562-15.732c-5.154-11.184-16.655-16.172-27.912-11.806S915.82,507.981,919.493,519.856Z" transform="translate(-913.206 -485.9)" fill="#fff"/>
      </g>
    </g>
    <g id="Grupo_509" data-name="Grupo 509" transform="translate(761.623 551.215)">
      <rect id="Rect치ngulo_160" data-name="Rect치ngulo 160" width="4.343" height="4.343" transform="translate(0 41.395)" fill="#fff"/>
      <g id="Grupo_508" data-name="Grupo 508" transform="translate(0 0)">
        <path id="Trazado_1626" data-name="Trazado 1626" d="M855.784,657.237a4.407,4.407,0,0,1,7.64-2.721l-1.19,1.1a2.578,2.578,0,0,0-2.014-.938,2.563,2.563,0,0,0,0,5.125,2.552,2.552,0,0,0,2.014-.95l1.19,1.1a4.4,4.4,0,0,1-7.64-2.712Z" transform="translate(-855.784 -653.096)" fill="#fff"/>
        <path id="Trazado_1627" data-name="Trazado 1627" d="M875.3,657.237a4.388,4.388,0,1,1,4.38,4.141A4.143,4.143,0,0,1,875.3,657.237Zm6.885,0a2.505,2.505,0,1,0-2.5,2.564A2.441,2.441,0,0,0,882.188,657.237Z" transform="translate(-865.494 -653.096)" fill="#fff"/>
        <path id="Trazado_1628" data-name="Trazado 1628" d="M905.972,661.378l-.011-4.8-2.358,3.957h-.835l-2.345-3.854v4.7h-1.737v-8.007h1.531l3,4.976,2.952-4.976h1.521l.023,8.007Z" transform="translate(-877.126 -653.233)" fill="#fff"/>
        <path id="Trazado_1629" data-name="Trazado 1629" d="M930.543,656.277c0,1.785-1.339,2.895-3.478,2.895h-1.613v2.207H923.6v-8.007h3.466C929.2,653.371,930.543,654.481,930.543,656.277Zm-1.878,0c0-.881-.571-1.4-1.7-1.4h-1.51v2.78h1.51C928.094,657.661,928.665,657.145,928.665,656.277Z" transform="translate(-889.519 -653.233)" fill="#fff"/>
        <path id="Trazado_1630" data-name="Trazado 1630" d="M946.637,659.662H942.92l-.709,1.716h-1.9l3.569-8.007h1.831l3.581,8.007h-1.944Zm-.583-1.408-1.269-3.065-1.269,3.065Z" transform="translate(-897.832 -653.233)" fill="#fff"/>
        <path id="Trazado_1631" data-name="Trazado 1631" d="M968.122,661.378l-1.544-2.23h-1.706v2.23H963.02v-8.007h3.466c2.14,0,3.478,1.11,3.478,2.906a2.6,2.6,0,0,1-1.649,2.528l1.8,2.574Zm-1.739-6.5h-1.51v2.79h1.51c1.133,0,1.7-.527,1.7-1.4S967.516,654.882,966.383,654.882Z" transform="translate(-909.129 -653.233)" fill="#fff"/>
        <path id="Trazado_1632" data-name="Trazado 1632" d="M983.459,654.882H980.9v-1.511h6.977v1.511h-2.561v6.5h-1.854Z" transform="translate(-918.022 -653.233)" fill="#fff"/>
        <path id="Trazado_1633" data-name="Trazado 1633" d="M999.941,653.371h1.852v8.007h-1.852Z" transform="translate(-927.495 -653.233)" fill="#fff"/>
        <path id="Trazado_1634" data-name="Trazado 1634" d="M1015.687,661.378l-1.544-2.23h-1.706v2.23h-1.852v-8.007h3.466c2.14,0,3.478,1.11,3.478,2.906a2.6,2.6,0,0,1-1.649,2.528l1.8,2.574Zm-1.739-6.5h-1.511v2.79h1.511c1.133,0,1.7-.527,1.7-1.4S1015.081,654.882,1013.948,654.882Z" transform="translate(-932.79 -653.233)" fill="#fff"/>
        <path id="Trazado_1635" data-name="Trazado 1635" d="M888.866,698.779l-1.544-2.23h-1.706v2.23h-1.852v-8.007h3.466c2.14,0,3.478,1.11,3.478,2.906a2.6,2.6,0,0,1-1.649,2.528l1.8,2.574Zm-1.739-6.5h-1.511v2.79h1.511c1.133,0,1.7-.527,1.7-1.4S888.26,692.283,887.127,692.283Z" transform="translate(-869.703 -671.838)" fill="#fff"/>
        <path id="Trazado_1636" data-name="Trazado 1636" d="M909.866,697.292v1.487h-6.2v-8.007h6.05v1.488h-4.208V694h3.717v1.441h-3.717v1.852Z" transform="translate(-879.603 -671.838)" fill="#fff"/>
        <path id="Trazado_1637" data-name="Trazado 1637" d="M920.865,697.854l.629-1.4a4.7,4.7,0,0,0,2.641.837c1.1,0,1.544-.367,1.544-.858,0-1.5-4.655-.47-4.655-3.445,0-1.361,1.1-2.494,3.375-2.494a5.384,5.384,0,0,1,2.78.709l-.572,1.408a4.514,4.514,0,0,0-2.22-.63c-1.1,0-1.521.414-1.521.917,0,1.474,4.655.457,4.655,3.4,0,1.338-1.11,2.482-3.4,2.482A5.72,5.72,0,0,1,920.865,697.854Z" transform="translate(-888.159 -671.701)" fill="#fff"/>
        <path id="Trazado_1638" data-name="Trazado 1638" d="M946.759,693.678c0,1.785-1.338,2.895-3.478,2.895h-1.613v2.207h-1.852v-8.007h3.466C945.421,690.772,946.759,691.882,946.759,693.678Zm-1.878,0c0-.881-.57-1.4-1.7-1.4h-1.51v2.78h1.51C944.311,695.062,944.882,694.546,944.882,693.678Z" transform="translate(-897.586 -671.838)" fill="#fff"/>
        <path id="Trazado_1639" data-name="Trazado 1639" d="M959.422,690.772h1.852v8.007h-1.852Z" transform="translate(-907.339 -671.838)" fill="#fff"/>
        <path id="Trazado_1640" data-name="Trazado 1640" d="M975.172,698.779l-1.544-2.23h-1.706v2.23H970.07v-8.007h3.466c2.14,0,3.478,1.11,3.478,2.906a2.6,2.6,0,0,1-1.649,2.528l1.8,2.574Zm-1.739-6.5h-1.511v2.79h1.511c1.133,0,1.7-.527,1.7-1.4S974.566,692.283,973.433,692.283Z" transform="translate(-912.636 -671.838)" fill="#fff"/>
        <path id="Trazado_1641" data-name="Trazado 1641" d="M994.2,697.063h-3.719l-.709,1.716h-1.9l3.568-8.007h1.831l3.581,8.007h-1.945Zm-.585-1.408-1.269-3.065-1.269,3.065Z" transform="translate(-921.494 -671.838)" fill="#fff"/>
        <path id="Trazado_1642" data-name="Trazado 1642" d="M1015.687,698.779l-1.544-2.23h-1.706v2.23h-1.852v-8.007h3.466c2.14,0,3.478,1.11,3.478,2.906a2.6,2.6,0,0,1-1.649,2.528l1.8,2.574Zm-1.739-6.5h-1.511v2.79h1.511c1.133,0,1.7-.527,1.7-1.4S1015.081,692.283,1013.948,692.283Z" transform="translate(-932.79 -671.838)" fill="#fff"/>
        <path id="Trazado_1643" data-name="Trazado 1643" d="M956.411,728.173l-3.468,8.007h-1.829l-3.455-8.007h2l2.438,5.719,2.471-5.719Z" transform="translate(-901.487 -690.443)" fill="#fff"/>
        <path id="Trazado_1644" data-name="Trazado 1644" d="M969.57,728.173h1.852v8.007H969.57Z" transform="translate(-912.387 -690.443)" fill="#fff"/>
        <path id="Trazado_1645" data-name="Trazado 1645" d="M986.778,728.173l-3.468,8.007h-1.829l-3.455-8.007h2l2.437,5.719,2.471-5.719Z" transform="translate(-916.594 -690.443)" fill="#fff"/>
        <path id="Trazado_1646" data-name="Trazado 1646" d="M999.937,728.173h1.852v8.007h-1.852Z" transform="translate(-927.493 -690.443)" fill="#fff"/>
        <path id="Trazado_1647" data-name="Trazado 1647" d="M1015.683,736.18l-1.544-2.23h-1.706v2.23h-1.852v-8.007h3.466c2.14,0,3.478,1.11,3.478,2.906a2.6,2.6,0,0,1-1.649,2.528l1.8,2.574Zm-1.739-6.5h-1.511v2.79h1.511c1.133,0,1.7-.527,1.7-1.4S1015.077,729.684,1013.944,729.684Z" transform="translate(-932.788 -690.443)" fill="#fff"/>
      </g>
    </g>
  </g>
</svg>
