<svg xmlns="http://www.w3.org/2000/svg" width="30.333" height="30.333" viewBox="0 0 30.333 30.333">
  <path id="whatsapp-brands" d="M25.79,36.408A15.036,15.036,0,0,0,2.133,54.547L0,62.333l7.969-2.092a14.985,14.985,0,0,0,7.184,1.828h.007A14.936,14.936,0,0,0,25.79,36.408ZM15.16,59.537A12.471,12.471,0,0,1,8.8,57.8l-.454-.271L3.616,58.765l1.259-4.611-.3-.474a12.518,12.518,0,1,1,23.217-6.642A12.633,12.633,0,0,1,15.16,59.537Zm6.852-9.357c-.372-.19-2.221-1.1-2.566-1.219s-.6-.19-.846.19-.968,1.219-1.192,1.476-.44.284-.812.095a10.224,10.224,0,0,1-5.112-4.469c-.386-.664.386-.616,1.1-2.052a.7.7,0,0,0-.034-.657c-.095-.19-.846-2.038-1.158-2.79-.3-.731-.616-.63-.846-.643s-.467-.014-.718-.014a1.391,1.391,0,0,0-1,.467A4.22,4.22,0,0,0,7.516,43.7a7.358,7.358,0,0,0,1.53,3.886,16.783,16.783,0,0,0,6.419,5.674c2.383,1.029,3.318,1.117,4.509.941a3.847,3.847,0,0,0,2.532-1.787,3.141,3.141,0,0,0,.217-1.788C22.635,50.457,22.384,50.363,22.012,50.18Z" transform="translate(0 -32)" fill="#fff"/>
</svg>
